<svg width="158.03427734375px" height="122px" xmlns="http://www.w3.org/2000/svg" viewBox="170.982861328125 14 158.03427734375 122" style="background: rgba(0, 0, 0, 0);" preserveAspectRatio="xMidYMid"><defs><filter id="editing-jagged" x="-100%" y="-100%" width="300%" height="300%"><feTurbulence result="turb" baseFrequency="0.1" numOctaves="1" seed="1"></feTurbulence><feDisplacementMap in="SourceGraphic" in2="turb" scale="10"></feDisplacementMap></filter></defs><g filter="url(#editing-jagged)"><g transform="translate(202.79118931293488, 97.39999961853027)"><path d="M6.53 0L-0.83 0L10.75-42.24L24.13-42.24L27.07-18.11L38.98-42.24L50.18-42.24L51.33-10.62L51.33-10.62Q51.58-4.35 54.66-2.43L54.66-2.43L54.66-2.43Q53.95-1.15 51.90 0.06L51.90 0.06L51.90 0.06Q49.86 1.28 47.14 1.28L47.14 1.28L47.14 1.28Q44.42 1.28 42.82 0.51L42.82 0.51L42.82 0.51Q41.22-0.26 40.32-1.54L40.32-1.54L40.32-1.54Q38.72-3.84 38.72-8.26L38.72-8.26L38.72-28.03L26.11 0L18.18 0L13.70-28.74L6.53 0ZM58.30-39.68L58.30-39.68L58.30-39.68Q60.16-43.52 65.31-43.52L65.31-43.52L65.31-43.52Q70.46-43.52 72.86-40.54L72.86-40.54L72.86-40.54Q75.26-37.57 75.26-30.72L75.26-30.72L75.26-7.87L90.82-42.18L98.43-42.18L78.53 0L63.55 0L61.63-30.72L61.63-30.72Q61.44-34.11 60.51-36.42L60.51-36.42L60.51-36.42Q59.58-38.72 58.30-39.68Z" fill="#444"></path></g></g><style>text {
  font-size: 64px;
  font-family: Arial Black;
  dominant-baseline: central;
  text-anchor: middle;
}</style></svg>